<?xml version="1.0" encoding="utf-8"?>
<!-- Generator: Adobe Illustrator 26.2.0, SVG Export Plug-In . SVG Version: 6.00 Build 0)  -->
<svg version="1.1" id="Layer_1" xmlns="http://www.w3.org/2000/svg" xmlns:xlink="http://www.w3.org/1999/xlink" x="0px" y="0px"
	 viewBox="0 0 400 400" style="enable-background:new 0 0 400 400;" xml:space="preserve">
<style type="text/css">
	.st0{fill:white;}
</style>
<g>
	<path class="st0" d="M180.19,209.28c-4.02,4.58-8.78,8.17-12.35,12.74c-5.3,6.79-11.18,13-16.9,19.39
		c-3.26,3.63-6.82,6.98-9.96,10.69c-1.64,1.94-3.21,3.92-4.99,5.75c-1.77,1.82-3.75,3.39-6.07,4.28c-1.47,0.56-1.91,2.29-3.95,2.42
		c-1.6,0.1-3.32,0.64-5.03,0.61c-1.7-0.03-3.42,0.32-5.05-0.75c-0.8-0.53-2.34,0.66-2.77-1.38c-0.14-0.67-2-0.89-2.95-1.51
		c-2.32-1.5-4.35-3.26-5.88-5.71c-1.04-1.67-0.99-3.78-2.46-5.18c-1.08-5.75-1.39-11.35,1.23-16.95c1.26-2.69,2.89-4.88,4.73-7.12
		c3.53-4.32,7.8-7.96,11.31-12.24c2.5-3.05,5.5-5.59,7.93-8.64c3.14-3.94,7.03-7.18,10.14-11.07c2.64-3.3,5.93-5.95,8.5-9.24
		c2.94-3.76,6.67-6.77,9.58-10.47c2.7-3.44,6.14-6.14,8.77-9.55c2.84-3.67,6.51-6.55,9.31-10.17c2.85-3.67,6.3-6.7,9.39-10.1
		c0.61-0.67,1.15-1.44,1.68-2.15c2.47-3.33,5.98-5.22,9.94-6.48c2.1-0.67,4.16-0.73,6.28-0.76c3.06-0.04,5.93,0.69,8.56,2.21
		c2.57,1.49,5.4,2.65,6.66,5.75c0.34,0.82,1.28,1.41,1.99,2.06c5.65,5.14,10.35,11.17,15.62,16.68c2.97,3.11,6.14,6.12,8.8,9.51
		c2.95,3.75,6.71,6.74,9.59,10.47c2.59,3.36,5.94,5.95,8.49,9.25c2.92,3.77,6.67,6.77,9.58,10.47c2.62,3.33,5.91,5.97,8.49,9.25
		c2.95,3.75,6.75,6.72,9.55,10.49c2.31,3.12,5.58,5.34,7.46,8.82c1.22,2.26,3.46,8.12,3.54,10.49c0.21,6.06-0.13,6.93-2.54,13.38
		c-1.28,3.42-4.16,5.62-7.32,7.4c-1.01,0.57-2.59,0.56-2.72,2.24c-1.4,0.23-2.76,0.56-4.13,0.96c-1.97,0.58-8.2-0.23-9.95-0.72
		c-0.96-0.27-0.28-1.32-1.27-1.75c-4.69-2.07-8.46-5.3-11.16-9.72c-0.14-0.23-0.38-0.39-0.58-0.59c-4.21-4.24-8.25-8.63-12.33-12.98
		c-3.62-3.85-7.27-7.74-10.54-11.82c-3.63-4.52-7.62-8.65-11.43-12.97c-1.58-1.79-3.07-3.69-4.86-5.54
		c-0.65,1.18-0.33,2.4-0.33,3.54c-0.02,39.57-0.04,79.14,0.02,118.71c0.01,3.84-1.16,7.21-3.4,10.12c-0.87,1.12-0.48,2.48-1.61,3.52
		c-2.85,2.64-5.96,4.36-9.8,5.32c-5.34,1.34-10.01,0.83-15.12-1.81c-2.51-1.29-5.28-2.58-5.66-6.12c-0.09-0.86-1.23-1.56-1.75-2.54
		c-1.45-2.71-2.33-5.42-2.32-8.54c0.06-21.02,0.03-42.04,0.03-63.06c0-18.27,0-36.55,0-54.82
		C180.19,211.98,180.19,210.63,180.19,209.28z"/>
	<path class="st0" d="M199.96,91.97c-33.26,0-66.52,0.04-99.77-0.04c-5.25-0.01-9.83-2.03-13.73-5.72
		c-1.14-1.08-0.56-2.63-1.69-3.46c-1.01-0.75-1.27-1.96-1.85-2.96c-0.63-1.08-0.84-2.4-1.37-3.55c-0.55-1.18-0.35-2.4-0.29-3.58
		c0.15-2.64,0.05-5.25,0.59-7.95c0.62-3.12,2.27-5.5,3.8-7.93c1.76-2.79,4.06-5.21,7.6-6.22c2.39-0.68,4.69-1.49,7.21-1.49
		c34.91,0.01,69.81,0.01,104.72,0.01c31.47,0,62.94,0.02,94.41-0.03c4.19-0.01,7.81,1.65,11.35,3.46c1.5,0.76,2.12,2.67,3.16,4.03
		c2.97,3.86,4.72,8.21,4.72,13.3c0.01,4.9-0.61,9.42-3.96,13.23c-0.33,2.83-2.27,4.4-4.56,5.57c-2.03,1.04-3.95,2.19-6.35,2.68
		c-1.84,0.37-3.63,0.63-5.47,0.63C265.65,91.98,232.8,91.97,199.96,91.97z"/>
</g>
</svg>
